<svg width="24" height="24" viewBox="0 0 24 24" fill="none" xmlns="http://www.w3.org/2000/svg">
  <path d="M11.9686 4.39867L15.3409 7.771C17.0694 9.49954 17.5199 11.9213 16.7118 14.1627L17.5583 15.0092C17.9488 15.3997 17.9488 16.0329 17.5583 16.4234C17.1678 16.814 16.5346 16.814 16.1441 16.4234L15.2976 15.5769C13.0562 16.385 10.6344 15.9344 8.9059 14.2059M8.9059 14.2059L5.53355 10.8336C5.14303 10.4431 5.14303 9.80989 5.53355 9.41936C5.92408 9.02884 6.55724 9.02884 6.94777 9.41936L7.79427 10.2659C8.59972 8.02685 11.0213 7.58156 12.7533 9.31355M8.9059 14.2059C10.6379 15.9379 13.0583 16.3807 15.2954 15.576" stroke="currentColor" stroke-width="2" stroke-linecap="round" stroke-linejoin="round"/>
  <path d="M12.9846 9.5447C13.208 9.32135 13.208 8.95914 12.9846 8.73579C12.7612 8.51244 12.399 8.51244 12.1757 8.73579C11.9523 8.95914 11.9523 9.32135 12.1757 9.5447C12.399 9.76805 12.7612 9.76805 12.9846 9.5447Z" fill="currentColor"/>
  <path d="M9.5447 12.9846C9.76805 13.208 10.1303 13.208 10.3536 12.9846C10.577 12.7612 10.577 12.399 10.3536 12.1757C10.1303 11.9523 9.76805 11.9523 9.5447 12.1757C9.32135 12.399 9.32135 12.7612 9.5447 12.9846Z" fill="currentColor"/>
  <path d="M12 4.03063C11.666 3.01183 12.334 1.98817 13.366 1.98817H14.1664C16.8373 1.98817 19.0028 4.15372 19.0028 6.82463V7.62507C19.0028 8.65706 17.9792 9.325 16.9604 8.99104C14.7356 8.26194 12.7291 6.25539 12 4.03063Z" stroke="currentColor" stroke-width="2" stroke-linecap="round" stroke-linejoin="round"/>
  <path d="M10.5147 17.6568C9.51474 18.6568 8.01474 19.6568 6.01474 20.6568C5.01474 21.1568 3.51474 22.1568 2.01474 21.6568C1.51474 21.1568 2.51474 19.6568 3.01474 18.6568C4.01474 16.6568 5.01474 15.1568 6.01474 14.1568" stroke="currentColor" stroke-width="2" stroke-linecap="round" stroke-linejoin="round"/>
</svg>
